# xmcd
#
# Track frame offsets:
#	150
#	13982
#	28778
#	41325
#	53838
#	67647
#	86538
#	100948
#	115645
#	126638
#	141228
#	157408
#	172588
#	187033
#
# Disc length: 2683 seconds
#
# Revision: 0
# Processed by: cddbd v1.4PL0 Copyright (c) Steve Scherf et al.
# Submitted via: audiograbber 1.82.02
#
DISCID=bb0a790e
DTITLE=Dagmar - MAN  HÖRE  UND  STAUNE
DYEAR=1900
DGENRE=
TTITLE0=IM  NÄCHSTEN  LEBEN  WERD'  ICH  AUCH  EIN MANN
TTITLE1=HELDEN  GIBT  ES  ÜBERALL
TTITLE2=ICH  LIEB'  DICH
TTITLE3=MAN  HÖRE  UND  STAUNE
TTITLE4=BRING  EIN  BISSCHEN  LIEBE  MIT
TTITLE5=MEHR  ALS  NUR  EINE  NACHT
TTITLE6=WAS  DU  KANNST DAS  KANN  ICH  AUCH
TTITLE7=WENN  DU  WIEDER  DA  BIST
TTITLE8=DU  BIST  MEIN  RICHTIGER  TYP
TTITLE9=ICH  MÖCHTE  DICH  SO  GERN  VERWÖHNEN
TTITLE10=KEIN  KIND  VON  TRAURIGKEIT
TTITLE11=TU'  WAS  DU  NICHT  LASSEN  KANNST
TTITLE12=NOTHING  STAYS  THE  SAME  ( NICHTS  BLEIBT  WIE  ES  MAL  WAR )
TTITLE13=MAYBE  I  WILL  MAYBE  I  WON'T ( DAS  BRAUCHT  KEIN  MENSCH )
EXTD=
EXTT0=
EXTT1=
EXTT2=
EXTT3=
EXTT4=
EXTT5=
EXTT6=
EXTT7=
EXTT8=
EXTT9=
EXTT10=
EXTT11=
EXTT12=
EXTT13=
PLAYORDER=
